<?xml version="1.0" encoding="UTF-8" standalone="no"?>
<!-- Created with Inkscape (http://www.inkscape.org/) -->

<svg
   width="9.5250006mm"
   height="9.5249987mm"
   viewBox="0 0 9.5250007 9.5249987"
   version="1.1"
   id="svg1"
   xmlns:xlink="http://www.w3.org/1999/xlink"
   xmlns="http://www.w3.org/2000/svg"
   xmlns:svg="http://www.w3.org/2000/svg">
  <defs
     id="defs1">
    <linearGradient
       id="linearGradient54">
      <stop
         style="stop-color:#0ea1c0;stop-opacity:1;"
         offset="0"
         id="stop53" />
      <stop
         style="stop-color:#02358c;stop-opacity:1;"
         offset="1"
         id="stop54" />
    </linearGradient>
    <linearGradient
       xlink:href="#linearGradient54"
       id="linearGradient1"
       gradientUnits="userSpaceOnUse"
       gradientTransform="matrix(0.24148912,0,0,0.24149519,-1215.4755,100.10121)"
       x1="-1528.1976"
       y1="130.20341"
       x2="-1496.6478"
       y2="165.26279" />
  </defs>
  <g
     id="layer1"
     transform="translate(-19.949707,-56.356247)">
    <g
       id="g1"
       transform="translate(1605.4209,-74.659302)">
      <rect
         style="display:inline;fill:#ffffff;fill-opacity:1;stroke:none;stroke-width:0.261818"
         id="rect1"
         width="9.5249996"
         height="9.5249996"
         x="-1585.4712"
         y="131.01555"
         ry="4.7624998" />
      <path
         id="path30-0-3"
         style="color:#000000;fill:url(#linearGradient1);stroke-width:0.241492;stroke-linejoin:bevel;-inkscape-stroke:none"
         d="m -1580.6686,131.54584 c -0.8494,-0.0394 -1.6644,0.96416 -0.52,2.46459 -10e-5,-0.001 0.169,-0.11044 0.3834,-0.29477 -1.3507,-1.8207 0.6864,-2.29337 0.7149,-0.92586 0.017,0.81563 -0.8869,1.45348 -1.7708,1.83688 -0.01,-0.0423 -0.02,-0.0845 -0.032,-0.1263 -0.1308,-0.4671 -0.3584,-0.91555 -0.8341,-1.1772 -0.3581,-0.19689 -0.7411,-0.2323 -1.0357,-0.1394 -1.1979,0.36911 -1.1125,2.43403 1.283,2.12578 0,-5.3e-4 -0.011,-0.20164 -0.063,-0.47947 -2.2521,0.25933 -1.6428,-1.74118 -0.4443,-1.0821 0.7148,0.39311 0.8151,1.49489 0.7052,2.45212 -0.042,-0.0125 -0.083,-0.0248 -0.1253,-0.0356 -0.4699,-0.12024 -0.972,-0.14745 -1.4364,0.13378 -0.3496,0.21162 -0.5718,0.52567 -0.6386,0.82727 -0.2794,1.22198 1.5516,2.18038 2.4824,-0.0484 0,5.3e-4 -0.1801,-0.0912 -0.447,-0.18469 -0.9013,2.08003 -2.3292,0.55219 -1.1591,-0.15625 0.6979,-0.42255 1.7021,0.0414 2.4761,0.61524 -0.032,0.0298 -0.063,0.0597 -0.093,0.0907 -0.3391,0.34687 -0.6137,0.76811 -0.6024,1.31098 0.01,0.40852 0.1694,0.75797 0.3971,0.96668 0.9187,0.85286 2.6642,-0.25365 1.1994,-2.1742 0,10e-4 -0.1691,0.11044 -0.3835,0.29476 1.3507,1.82071 -0.6864,2.29338 -0.7149,0.92587 -0.017,-0.81568 0.887,-1.45348 1.7709,-1.83688 0.01,0.0423 0.02,0.0846 0.032,0.12642 0.1308,0.46711 0.3584,0.91556 0.8341,1.1772 0.358,0.19689 0.741,0.2323 1.0356,0.1394 1.1979,-0.3691 1.1125,-2.43415 -1.283,-2.1259 0,5.3e-4 0.011,0.20177 0.063,0.47959 2.2519,-0.25933 1.6428,1.74106 0.4443,1.08198 -0.7148,-0.39309 -0.8152,-1.49479 -0.7053,-2.45199 0.042,0.0125 0.083,0.0248 0.1253,0.0356 0.4699,0.12023 0.972,0.14732 1.4364,-0.13391 0.3496,-0.21162 0.5719,-0.52554 0.6387,-0.82715 0.2794,-1.22197 -1.5518,-2.18051 -2.4825,0.0483 0,-5.3e-4 0.1802,0.0913 0.447,0.18482 0.9014,-2.08004 2.3292,-0.55231 1.1591,0.15612 -0.6979,0.42255 -1.7021,-0.0413 -2.4761,-0.61512 0.032,-0.0298 0.063,-0.0598 0.094,-0.0909 0.3391,-0.34687 0.6137,-0.76811 0.6024,-1.31098 -0.01,-0.40852 -0.1694,-0.75798 -0.3972,-0.96668 -0.201,-0.18656 -0.4415,-0.27936 -0.6793,-0.29039 z m -0.023,2.98836 c 0.096,0.0701 0.5223,0.3897 1.0682,0.63734 -0.013,0.11794 -0.076,0.64724 -0.018,1.24384 -0.1085,0.0478 -0.5987,0.25758 -1.0862,0.60663 -0.096,-0.0701 -0.5224,-0.38982 -1.0683,-0.63746 0.013,-0.11793 0.076,-0.64724 0.018,-1.24384 0.1085,-0.0478 0.5988,-0.25746 1.0863,-0.60651 z"
         transform="translate(-4.0833336e-6)" />
    </g>
  </g>
</svg>
